<svg xmlns="http://www.w3.org/2000/svg" xmlns:xlink="http://www.w3.org/1999/xlink" viewBox="0 0 67.19 63.03"><defs><style>.cls-1{clip-path:url(#clip-path);}</style><clipPath id="clip-path"><path d="M33.59,35.36,28.12,30S18.62,56.17,0,41.46V51.89S0,63,11.13,63H56.05s11.14,0,11.14-11.14V41.46C48.57,56.17,39.07,30,39.07,30ZM11.13,0S0,0,0,11.13V39.28a8.2,8.2,0,0,0,6.3-1.66C11.13,34,10.12,17.38,22.21,17.69a17.73,17.73,0,0,1,11.38,4.77A17.79,17.79,0,0,1,45,17.69C57.07,17.38,56.05,34,60.89,37.62a8.19,8.19,0,0,0,6.3,1.66V11.13S67.19,0,56.05,0Z"/></clipPath></defs><title>Bratoss Logo</title><g id="Layer_2" data-name="Layer 2"><g id="header"><path d="M33.59,35.36,28.12,30S18.62,56.17,0,41.46V51.89S0,63,11.13,63H56.05s11.14,0,11.14-11.14V41.46C48.57,56.17,39.07,30,39.07,30ZM11.13,0S0,0,0,11.13V39.28a8.2,8.2,0,0,0,6.3-1.66C11.13,34,10.12,17.38,22.21,17.69a17.73,17.73,0,0,1,11.38,4.77A17.79,17.79,0,0,1,45,17.69C57.07,17.38,56.05,34,60.89,37.62a8.19,8.19,0,0,0,6.3,1.66V11.13S67.19,0,56.05,0Z"/><g class="cls-1"><rect width="67.19" height="63.03"/></g></g></g></svg>