<svg viewBox="0 0 512 106" version="1.1" xmlns="http://www.w3.org/2000/svg" xmlns:xlink="http://www.w3.org/1999/xlink">
<path d="M385.49,49.2 C384.95,42 379.56,36.69 372.68,36.56 C367.044176,36.4240736 361.503166,38.0266719 356.81,41.15 C355.92,41.74 355.07,42.36 354.17,43.02 L353.17,43.79 L353.17,43.72 C353.07,43.53 352.97,43.36 352.89,43.18 C351.621035,40.2718381 349.076779,38.1153133 346,37.34 C340.608753,35.7726196 334.807745,36.5303763 330,39.43 C328.27,40.43 326.56,41.43 324.81,42.54 C324.619947,42.6953034 324.373671,42.7641796 324.130625,42.7300013 C323.887579,42.695823 323.66985,42.5616961 323.53,42.36 C322.14,41.04 320.7,39.73 319.31,38.46 L318.45,37.67 C318.275673,37.5155052 318.091992,37.3718997 317.9,37.24 L317.52,36.96 L317.15,36.68 L317.15,82.57 L323.36,82.57 L323.36,64.83 C323.36,59.2166667 323.36,53.6 323.36,47.98 C323.270597,47.5032862 323.536175,47.0311483 323.99,46.86 C324.85,46.45 325.71,46 326.54,45.56 L327.36,45.13 C331.072138,43.2100542 335.18108,42.1828185 339.36,42.13 C341.853173,41.9440151 344.288059,42.9446535 345.93,44.83 C347.336976,46.4875041 348.081373,48.6067229 348.02,50.78 C348.02,58.1133333 348.02,65.4466667 348.02,72.78 L348.02,81.04 C348.02,81.11 348.02,81.18 348.02,81.26 C347.984173,81.4708974 348.001355,81.687394 348.07,81.89 C348.197556,82.2251629 348.475388,82.480768 348.82,82.58 C349.76,82.58 350.69,82.58 351.65,82.58 L354.34,82.58 L354.34,81.18 C354.34,78.4466667 354.34,75.7133333 354.34,72.98 C354.34,65.36 354.34,57.49 354.27,49.74 C354.056301,48.0217048 355.001129,46.3682552 356.59,45.68 C361.511954,42.805432 367.245991,41.6382338 372.9,42.36 C374.406256,42.549323 375.810139,43.2231872 376.9,44.28 C378.63,45.93 379.44,48.11 379.45,51.17 C379.45,58.4566667 379.45,65.7466667 379.45,73.04 L379.45,82.56 L385.73,82.56 L385.73,74.56 C385.73,67.16 385.73,59.7566667 385.73,52.35 C385.6,51.28 385.56,50.23 385.49,49.2 Z" id="Shape"></path>
<path d="M435,40.27 C432.65,37.63 429.49,36.34 425.29,36.38 C419.88146,36.4709342 414.531927,37.5205262 409.49,39.48 C408.96,39.67 408.49,39.89 407.87,40.12 L407.3,40.35 L407.3,14.41 L401.3,14.41 L401.3,83.09 L401.67,82.82 L402.22,82.43 C402.53,82.21 402.77,82.04 403,81.83 L404.69,80.35 C405.77,79.4 406.88,78.42 407.99,77.49 C408.234892,77.3800534 408.515108,77.3800534 408.76,77.49 C409.58,77.91 410.41,78.36 411.21,78.79 C412.53,79.51 413.89,80.25 415.28,80.86 C418.3573,82.3292687 421.710872,83.1301728 425.12,83.21 L425.71,83.21 C429.472329,83.2521531 433.028446,81.4945317 435.28,78.48 C436.796505,76.4526733 437.860442,74.1236041 438.4,71.65 C440.128377,63.8025765 440.179493,55.6785511 438.55,47.81 C438.076711,45.019863 436.849057,42.4123949 435,40.27 Z M432.42,69.48 C431.964616,71.8978761 430.740535,74.1040282 428.93,75.77 C427.731337,76.7810671 426.218047,77.3432473 424.65,77.36 C419.562187,77.3881664 414.52573,76.3420281 409.87,74.29 C407.43,73.29 407.43,73.29 407.43,70.66 L407.43,44.3 C411.666688,43.0728207 416.026921,42.3215191 420.43,42.06 C421.02,42.06 421.61,42.01 422.2,41.99 L423.44,41.99 C428.16,41.79 431.21,43.99 432.23,48.49 C432.836378,51.2432292 433.204405,54.0435855 433.33,56.86 C433.669411,61.0884694 433.362556,65.3439704 432.42,69.48 L432.42,69.48 Z" id="Shape"></path>
<path d="M304.82,37.07 C303.57,37.07 302.38,37.07 301.19,37.07 C300.805219,37.0128901 300.413556,37.1116941 300.101909,37.3444908 C299.790262,37.5772875 299.584401,37.9248263 299.53,38.31 C297.33,45.31 295.12,52.31 292.9,59.31 C291.173333,64.77 289.446667,70.23 287.72,75.69 C287.596392,76.2950506 287.085856,76.7443223 286.47,76.79 C285.105403,77.1106883 283.66913,76.8668593 282.486819,76.1137945 C281.304507,75.3607298 280.476311,74.1622221 280.19,72.79 C278.62,67.5 277.04,62.11 275.52,56.89 L272.88,47.89 C271.92,44.5966667 270.95,41.3033333 269.97,38.01 C269.867958,37.6053829 269.566194,37.280987 269.17,37.15 C267.67,37.15 266.17,37.15 264.63,37.15 L263,37.15 L263.29,38.15 C263.42,38.61 263.54,39.03 263.66,39.45 L265.79,46.64 C267.71,53.13 269.7,59.84 271.68,66.42 L272.18,68.09 C272.933648,70.8014443 273.828197,73.4717377 274.86,76.09 C276.7,80.54 280.1,82.81 284.7,82.64 L285.65,82.64 L277.65,106.85 L279.65,106.85 C280.95,106.85 282.18,106.85 283.41,106.85 L283.55,106.85 C284.303386,106.899039 284.966736,106.357885 285.07,105.61 C288.49,94.72 291.91,83.92 295.22,73.46 L301.1,54.9 L305.72,40.33 C305.93,39.67 306.13,39.01 306.33,38.33 L306.71,37.06 L304.78,37.06 L304.82,37.07 Z" id="Shape"></path>
<path d="M513,58.08 C512.957033,54.5317721 512.497213,51.0008879 511.63,47.56 C510.52776,42.4358647 506.439008,38.48538 501.28,37.56 C495.799813,36.3713086 490.131363,36.3440564 484.64,37.48 C479.695141,38.3099178 475.695776,41.9610016 474.42,46.81 C473.08,51.11 472.8,55.54 472.77,62.2 C472.788334,65.6763183 473.276075,69.1342368 474.22,72.48 C475.63,77.32 478.63,80.48 483.12,81.73 C486.269237,82.6402095 489.531874,83.0981235 492.81,83.09 C495.69116,83.0775409 498.563235,82.7658688 501.38,82.16 C503.827999,81.7371239 506.115701,80.6589319 508,79.04 C509.980524,77.052908 511.318352,74.5166094 511.84,71.76 C512.83918,67.2727736 513.229355,62.6714004 513,58.08 L513,58.08 Z M505.7,70.55 C504.7,74.55 502.19,76.7 497.97,77.17 C494.517689,77.616175 491.022311,77.616175 487.57,77.17 C483.66,76.6 481.19,74.33 480,70.22 C479.242886,67.0792741 478.93316,63.8473548 479.08,60.62 L479.08,59.97 C478.930754,56.5706571 479.240204,53.1667028 480,49.85 C480.420644,48.0377581 481.248208,46.3450139 482.42,44.9 C483.881433,43.4329167 485.841139,42.5690751 487.91,42.48 C489.63887,42.2710455 491.378554,42.1641935 493.12,42.16 C494.856686,42.1572492 496.591268,42.2809092 498.31,42.53 C501.58675,42.8893902 504.337143,45.1604288 505.31,48.31 C506.150848,50.9801302 506.588996,53.7606822 506.61,56.56 L506.61,57.07 C506.61,57.69 506.61,58.32 506.61,58.94 C506.61,59.23 506.61,59.52 506.61,59.81 L506.61,59.81 C506.765325,63.4151446 506.452721,67.0252168 505.68,70.55 L505.7,70.55 Z" id="Shape"></path>
<path d="M256.05,23.48 C255.79,22.68 255.54,21.92 255.36,21.14 C255.286294,20.5274271 254.776658,20.0602613 254.16,20.04 L249.07,19.41 C245.13,18.92 241.07,18.41 237.07,17.96 C233.820767,17.5793421 230.532314,17.7007619 227.32,18.32 C221,19.48 216.85,23.14 214.62,29.33 C212.21,36.01 212.04,43.05 211.88,49.85 L211.88,50.51 C211.88,52.08 211.96,53.68 212.08,55.23 C212.08,55.7 212.15,56.18 212.18,56.65 C212.42082,60.9058874 213.245195,65.1085132 214.63,69.14 C215.562581,72.1792864 217.153665,74.9756336 219.29,77.33 C222.23,80.4 226.06,82.05 231,82.33 C232.11,82.4 233.22,82.43 234.33,82.43 C237.862564,82.3821862 241.390429,82.1552279 244.9,81.75 C247.15,81.52 249.42,81.19 251.62,80.86 L253.12,80.64 C253.506376,80.5720328 253.822636,80.2943415 253.94,79.92 C253.94,79 253.94,78.09 253.94,77.14 C253.94,76.83 253.94,76.53 253.94,76.22 L253.94,76.04 L252.63,76.04 L249.93,76.16 C248.07,76.25 246.14,76.34 244.24,76.38 C240.38,76.48 236.41,76.48 233,76.48 C228.047198,76.665551 223.472853,73.8411493 221.42,69.33 C218.95,64.47 218.42,59.17 218.27,54.63 C218.09,49.92 218.27,45.19 218.4,41.63 C218.45834,38.2154063 219.090488,34.8349344 220.27,31.63 C220.995215,29.5647065 222.246363,27.724175 223.9,26.29 C225.956067,24.6255982 228.535299,23.743416 231.18,23.8 C236.18,23.8 241.18,23.96 245.62,24.13 C248.02,24.22 250.36,24.39 252.84,24.57 L256.16,24.8 L256.5,24.8 L256.4,24.47 C256.28,24.12 256.16,23.78 256.05,23.48 Z" id="Shape"></path>
<path d="M458.17,37.07 C457.07,37.07 456.03,37.07 454.99,37.07 C454.612668,37.0032096 454.224609,37.0975043 453.92,37.33 C453.659913,37.6531124 453.544191,38.0689861 453.6,38.48 C453.6,50.12 453.6,61.95 453.6,73.39 L453.6,82.58 L459.8,82.58 L459.8,37.06 L458.15,37.06 L458.17,37.07 Z" id="Shape"></path>
<path d="M460.58,21.92 C460.302784,21.6823016 459.944651,21.5605364 459.58,21.58 C457.92,21.58 456.24,21.58 454.58,21.58 L454.36,21.58 C453.971287,21.5522508 453.587172,21.6778958 453.29,21.93 C453.045561,22.2033253 452.922821,22.5643247 452.95,22.93 C452.95,23.79 452.95,24.64 452.95,25.5 C452.95,26.36 452.95,27.38 452.95,28.32 C452.928219,28.6885352 453.058315,29.0499123 453.31,29.32 C453.606879,29.5796441 453.99726,29.7061565 454.39,29.67 C455,29.67 455.61,29.67 456.23,29.67 L457.86,29.67 C458.49,29.67 459.14,29.67 459.77,29.67 L459.86,29.67 C460.172477,29.6945919 460.481899,29.5938499 460.72,29.39 C460.940414,29.141361 461.042513,28.8095397 461,28.48 L461,27.22 C461,25.8 461,24.37 461,22.95 C461.008255,22.5633966 460.856239,22.1905959 460.58,21.92 L460.58,21.92 Z" id="Shape"></path>
<path d="M66.51,99.83 C71.5340798,98.2270732 76.3201764,95.9567884 80.74,93.08 C84.2,90.93 87.64,88.75 91.04,86.51 C94.44,84.27 113.09,70.7 115.4,68.98 C115.16,69.25 85.54,80.98 82.76,82.14 C78.87,83.74 74.96,85.29 71.02,86.75 C68.8668617,87.5524681 66.6659574,88.2204209 64.43,88.75 C61.1226886,89.4938308 57.7564058,89.9455686 54.37,90.1 C51.1846361,90.2916432 47.9878213,90.1239194 44.84,89.6 C41.4689726,89.0213607 38.1944593,87.9780933 35.11,86.5 C29.6973293,83.9521575 24.9520975,80.1792531 21.25,75.48 C17.628429,70.9258842 15.0971431,65.6033425 13.85,59.92 C13.005572,56.1217281 12.7392392,52.2177623 13.06,48.34 C13.3628596,44.5666303 14.2256451,40.859349 15.62,37.34 C17.0772405,33.6271649 19.1012768,30.1626894 21.62,27.07 C27.6039714,19.8080179 36.0299491,14.976413 45.32,13.48 C48.9787074,12.8931493 52.7016522,12.8224605 56.38,13.27 C60.4030684,13.7565361 64.3244285,14.87355 68,16.58 C71.5346533,18.6040246 74.7918285,21.0779987 77.69,23.94 C79.23,22.94 87.93,16.26 87.93,16.26 C87.33,15.91 81.48,10.33 76.27,7.47 C71.4641078,4.76398754 66.2436116,2.87176882 60.82,1.87 C58.178899,1.38157103 55.5045684,1.09408049 52.82,1.01 C48.7606067,0.903629058 44.7035273,1.29657467 40.74,2.18 C37.4997634,2.8866309 34.3400714,3.92199127 31.31,5.27 C23.1505141,8.87600443 16.0738304,14.5497606 10.78,21.73 C8.46011572,24.9130874 6.52028438,28.3564558 5,31.99 C3.49426594,35.4915265 2.40027115,39.1560734 1.74,42.91 C1.11182629,46.4332576 0.863737946,50.0137759 1,53.59 C1.13418497,56.5819986 1.5290137,59.5565982 2.18,62.48 C2.88296541,65.6993517 3.91159345,68.8388451 5.25,71.85 C6.8358663,75.4052955 8.81844688,78.7699796 11.16,81.88 C13.6565877,85.2015847 16.5515823,88.2040501 19.78,90.82 C26.9827905,96.6586882 35.651918,100.405163 44.84,101.65 C48.468362,102.148628 52.1408959,102.242537 55.79,101.93 C59.4252883,101.59525 63.0171041,100.891629 66.51,99.83 Z" id="Shape"></path>
<path d="M126.72,3.27 C121.69592,4.87292682 116.909824,7.14321158 112.49,10.02 C109.03,12.17 105.59,14.35 102.19,16.59 C98.79,18.83 80.14,32.41 77.83,34.12 C78.07,33.85 107.69,22.12 110.47,20.96 C114.36,19.36 118.27,17.81 122.21,16.35 C124.363138,15.5475319 126.564043,14.8795791 128.8,14.35 C132.107311,13.6061692 135.473594,13.1544314 138.86,13 C142.045364,12.8083568 145.242179,12.9760806 148.39,13.5 C151.761027,14.0786393 155.035541,15.1219067 158.12,16.6 C163.530593,19.1421144 168.275644,22.908028 171.98,27.6 C175.601571,32.1541158 178.132857,37.4766575 179.38,43.16 C180.224428,46.9582719 180.490761,50.8622377 180.17,54.74 C179.86714,58.5133697 179.004355,62.220651 177.61,65.74 C176.15276,69.4528351 174.128723,72.9173106 171.61,76.01 C165.645809,83.2859714 157.234248,88.1387951 147.95,89.66 C144.291293,90.2468507 140.568348,90.3175395 136.89,89.87 C132.848824,89.3622402 128.913474,88.2180863 125.23,86.48 C121.695347,84.4559754 118.438172,81.9820013 115.54,79.12 C114,80.12 105.3,86.8 105.3,86.8 C105.9,87.15 111.75,92.73 116.96,95.59 C121.765892,98.2960125 126.986388,100.188231 132.41,101.19 C135.051101,101.678429 137.725432,101.96592 140.41,102.05 C144.478987,102.162118 148.546288,101.772517 152.52,100.89 C155.760237,100.183369 158.919929,99.1480087 161.95,97.8 C170.105841,94.1925198 177.178935,88.5188784 182.47,81.34 C184.807308,78.1593885 186.763976,74.7159216 188.3,71.08 C189.787864,67.5795473 190.865049,63.9184592 191.51,60.17 C192.124783,56.6452994 192.35946,53.0647914 192.21,49.49 C192.062488,46.5172404 191.65764,43.5628554 191,40.66 C190.318946,37.4466179 189.313805,34.3105773 188,31.3 C186.417479,27.7273415 184.434805,24.3457241 182.09,21.22 C179.593412,17.8984153 176.698418,14.8959499 173.47,12.28 C166.258241,6.44875642 157.582039,2.71259289 148.39,1.48 C144.761638,0.981372473 141.089104,0.887462932 137.44,1.2 C133.805756,1.52496949 130.21396,2.21853464 126.72,3.27 Z" id="Shape"></path>
<path d="M105.21,88.18 L105.21,88.18 C105.21,88.18 105.2,88.19 105.21,88.18 Z" id="Shape"></path>
</svg>