<svg xmlns="http://www.w3.org/2000/svg" viewBox="0 0 152.78 58.99"><defs><style>.cls-1{fill:#00aeea;}</style></defs><title>logo</title><g id="Layer_2" data-name="Layer 2"><g id="Layer_1-2" data-name="Layer 1"><path class="cls-1" d="M4.82,53.48V29a38.1,38.1,0,0,1,48.66.14V53.48ZM53.48,4.93V22.38a43.55,43.55,0,0,0-48.66-.12V4.93ZM0,58.3H58.42V0H0Z"/><path class="cls-1" d="M37.05,37.55a7.84,7.84,0,1,1-7.84-7.84,7.84,7.84,0,0,1,7.84,7.84"/><path class="cls-1" d="M67.23,30.57a3,3,0,1,1,3,3,3,3,0,0,1-3-3"/><rect class="cls-1" x="67.88" y="36.8" width="4.67" height="21.63"/><path class="cls-1" d="M84.87,41.29V51.68c0,2.76,1.82,2.72,5.36,2.55v4.19c-7.18.87-10-1.12-10-6.74V41.29h-4V36.8h4V32.12l4.67-1.38V36.8h5.36v4.49Z"/><path class="cls-1" d="M106,36.41v5.06c-3.07-.22-6.66,1.21-6.66,6.05v10.9H94.69V36.8h4.67v3.63a6.81,6.81,0,0,1,6.66-4"/><path class="cls-1" d="M124.84,45.79a6,6,0,0,0-6.19-5.32,6.29,6.29,0,0,0-6.53,5.32Zm-5.76,8.91A6.58,6.58,0,0,0,124.66,52l3.85,2.25A10.93,10.93,0,0,1,119,59c-7.14,0-11.77-4.89-11.77-11.38a11,11,0,0,1,11.42-11.38c6.45,0,10.86,5.19,10.86,11.42a15.37,15.37,0,0,1-.17,2H112.16c.74,3.37,3.46,5.1,6.92,5.1"/><polygon class="cls-1" points="147.2 58.42 138.33 48.43 138.33 58.42 133.66 58.42 133.66 27.6 138.33 27.6 138.33 46.36 146.72 36.8 152.43 36.8 142.91 47.39 152.78 58.42 147.2 58.42"/></g></g></svg>