<svg xmlns="http://www.w3.org/2000/svg" viewBox="0 0 242.7 103.99"><defs><style>.cls-1{fill:#00aeef;}.cls-2{fill:#b2d235;}.cls-3{fill:#f4d400;}.cls-4{fill:#ec008c;}.cls-5{fill:#80479c;}.cls-6{fill:#047bc1;}.cls-7{fill:#ef4123;}.cls-8{fill:#f58221;}.cls-9{fill:#5fb246;}.cls-10{fill:#60b3e7;}.cls-11{fill:#fff;}.cls-12{fill:#232a2f;}</style></defs><title>jlm</title><g id="Layer_2" data-name="Layer 2"><g id="Layer_1-2" data-name="Layer 1"><g id="Layer_1-2-2" data-name="Layer 1-2"><path class="cls-1" d="M23.71,39.26H14.4l1.89-18.12h7.42Zm8.22,7.09V13.83a.9.9,0,0,0-.88-.88H5.49a.88.88,0,0,0-.88.88v6.6a.87.87,0,0,0,.88.88H8.07l-2.63,25a.86.86,0,0,0,.7,1,.49.49,0,0,0,.17,0H31.05a.88.88,0,0,0,.88-.87"/><path class="cls-2" d="M77.25,20.62V14.07a.89.89,0,0,0-.88-.88H53.79a.87.87,0,0,0-.87.87h0v6.55a.87.87,0,0,0,.87.87H65.41V46.58a.86.86,0,0,0,.86.88h6.37a.87.87,0,0,0,.88-.86V21.49h2.85a.88.88,0,0,0,.88-.87"/><path class="cls-3" d="M102.23,11.1a.9.9,0,0,0-.71-.36H88.46V4.79a.87.87,0,0,0-.87-.87H81.06a.87.87,0,0,0-.88.87V18.15a.87.87,0,0,0,.88.88h10.3L83.25,42.79a.86.86,0,0,0,.52,1.1h0l6.15,2.2a.58.58,0,0,0,.29,0,.84.84,0,0,0,.38-.08.86.86,0,0,0,.45-.52l11.3-33.65a.89.89,0,0,0-.12-.79"/><path class="cls-4" d="M137.32,27.31a.94.94,0,0,0-.22-.64.87.87,0,0,0-.61-.3l-6.85-.4a.89.89,0,0,0-.93.81l-1.5,19a.87.87,0,0,0,.79.94h0l6.86.57h.07a.86.86,0,0,0,.57-.2,1,1,0,0,0,.3-.6Z"/><path class="cls-4" d="M153.69,46V13.49a.88.88,0,0,0-.86-.88H127a.87.87,0,0,0-.88.86V20a.87.87,0,0,0,.87.87h18.34V46a.87.87,0,0,0,.88.88h6.57a.87.87,0,0,0,.87-.87h0"/><path class="cls-5" d="M183.82,20.17l1.73-17.85a.89.89,0,0,0-.75-1h0L173.58.24a.9.9,0,0,0-1,.75V1L172,7.56a.88.88,0,0,0,.74,1h0l3.7.36-1,10.48a.88.88,0,0,0,.74,1h.05l6.61.64a.87.87,0,0,0,1-.78h0"/><path class="cls-6" d="M119,31.77V13.83a.87.87,0,0,0-.87-.87h-11.2a.87.87,0,0,0-.88.86h0v6.53a.87.87,0,0,0,.87.87h3.73V31.77a.87.87,0,0,0,.87.87h6.64a.87.87,0,0,0,.88-.86h0"/><path class="cls-7" d="M50.73,29.43V11.51a.87.87,0,0,0-.87-.87H38.62a.87.87,0,0,0-.87.87V18a.87.87,0,0,0,.87.88h3.72V29.43a.87.87,0,0,0,.88.88h6.64a.87.87,0,0,0,.87-.88"/><path class="cls-8" d="M202.71,36.5,202.6,2.8a.87.87,0,0,0-.87-.87h0l-6.4.06a.88.88,0,0,0-.87.88l.05,25.35L185,27.3a.9.9,0,0,0-1,.75v0l-.64,6.62a.88.88,0,0,0,.76,1h0l17.61,1.7a.9.9,0,0,0,.68-.22.87.87,0,0,0,.28-.65"/><path class="cls-9" d="M242.6,40.05,229.65,7.11a.88.88,0,0,0-1.14-.49h0l-5.94,2.49a.85.85,0,0,0-.48,1.12h0l4.71,12.11L208.14,34.22a.86.86,0,0,0-.28,1.18l3.39,5.77a.88.88,0,0,0,.55.41h.12a.87.87,0,0,0,.56-.14l17.42-11.2,5.11,13a.86.86,0,0,0,.48.49.83.83,0,0,0,.69,0l6-2.6a.86.86,0,0,0,.46-1.12"/><path class="cls-9" d="M228.66,46.72l.24-2.46a.89.89,0,0,0-.79-.95h0l-10.48-1a.87.87,0,0,0-.95.79h0l-.24,2.47a.87.87,0,0,0,.72,1h.07l10.47,1a.86.86,0,0,0,1-.72.2.2,0,0,1,0-.07"/><path class="cls-3" d="M97.09,53.1V50.36a.87.87,0,0,0-.87-.87H85.74a.87.87,0,0,0-.87.87h0V53.1a.87.87,0,0,0,.87.87h3v3.52a.86.86,0,0,0,.86.88h2.7a.88.88,0,0,0,.88-.88V54h3.07a.87.87,0,0,0,.87-.87h0"/><path class="cls-4" d="M147.72,54V51.54a.89.89,0,0,0-.87-.88H136.32a.89.89,0,0,0-.88.88V54a.87.87,0,0,0,.88.88h10.53a.87.87,0,0,0,.87-.87h0"/><path class="cls-9" d="M219.65,21.79A2.46,2.46,0,0,0,217.59,19h-.07a2.5,2.5,0,0,0-2.76,2.19.71.71,0,0,0,0,.14A2.45,2.45,0,0,0,217,24h0a2.41,2.41,0,0,0,2.61-2.19"/><path class="cls-8" d="M193.26,19.68a2.47,2.47,0,1,0-2.73,2.18h.11a2.42,2.42,0,0,0,2.62-2.19"/><path class="cls-8" d="M193.5,42.86A2.47,2.47,0,1,0,190.77,45h.11a2.46,2.46,0,0,0,2.62-2.19"/><path class="cls-6" d="M116.66,49.9a3,3,0,0,0-4.24.21l0,0a3,3,0,0,0,.24,4.24l.16.13A3,3,0,0,0,117,54l0,0a3,3,0,0,0-.37-4.11"/><path class="cls-2" d="M71,50.16a3,3,0,0,0-4.24.17l0,0A3,3,0,0,0,67,54.61a1.39,1.39,0,0,0,.19.15,3,3,0,0,0,4.22-.44l0,0A2.94,2.94,0,0,0,71,50.16"/><path class="cls-8" d="M201.41,43.26a2.84,2.84,0,1,0-3.15,2.5h.15a2.79,2.79,0,0,0,3-2.51"/><rect class="cls-10" x="62.57" y="5.72" width="29.52" height="152.53" transform="translate(-11.69 151.1) rotate(-84.5)"/><path class="cls-11" d="M18.34,82.43l-6.71-.65L14,70.68l5.46.53Zm3.54,3.86L23.65,68,8.29,66.48l-.35,3.69,2.13.2L7,84.82Z"/><polygon class="cls-11" points="26.89 68.27 26.54 71.93 29.27 72.19 28.65 78.57 32.6 78.95 33.56 68.91 26.89 68.27"/><polygon class="cls-11" points="49.19 70.42 40.84 69.62 41.21 65.77 37.3 65.4 36.57 72.92 43.48 73.59 37.03 87.13 40.59 88.73 49.19 70.42"/><path class="cls-11" d="M71.74,72.59,68,72.23l-1.42,14.7-5-.48,2.94-14.36-3.72-.66c-.91,4.62-2.06,10.06-3,14.68l-3.09-.3L56.13,71.1l-3.75-.36L50.62,89,70,90.88Z"/><rect class="cls-11" x="67.88" y="80.38" width="18.38" height="3.9" transform="translate(-12.27 151.15) rotate(-84.5)"/><polygon class="cls-11" points="94.73 74.8 83.35 73.71 83 77.39 90.52 78.12 89.12 92.73 92.96 93.1 94.73 74.8"/><polygon class="cls-11" points="98.04 75.12 97.69 78.78 100.42 79.04 99.8 85.42 103.75 85.8 104.71 75.77 98.04 75.12"/><polygon class="cls-11" points="126.56 77.87 118.21 77.07 118.58 73.22 114.67 72.85 113.94 80.37 120.85 81.04 114.4 94.58 117.96 96.18 126.56 77.87"/><path class="cls-11" d="M148.51,78.92l-3.78-.37-1.42,14.7-5-.47,3-14.35-3.72-.68c-.91,4.63-2.06,10.06-3,14.68l-3.09-.3,1.38-14.7-3.75-.36-1.76,18.29,19.4,1.87Z"/><path class="cls-12" d="M15.22,36.83h9.32V18.72H17.12Zm10.2,1.76H14.25a.87.87,0,0,1-.88-.88.49.49,0,0,1,0-.12l2.08-19.87a.89.89,0,0,1,.87-.79h9.09a.89.89,0,0,1,.87.88v19.9a.87.87,0,0,1-.87.88M8.11,43H31V12.28H7.19v4.8H9.87a.88.88,0,0,1,.87.89v.11ZM31.88,44.8H7.13a.88.88,0,0,1-.65-.29.92.92,0,0,1-.22-.68l2.64-25H6.31A.87.87,0,0,1,5.44,18h0V11.43a.87.87,0,0,1,.87-.87H31.88a.87.87,0,0,1,.87.87h0V43.92a.87.87,0,0,1-.87.88"/><path class="cls-12" d="M42.27,28.43h4.89V12.28H37.68v4.78H41.4a.87.87,0,0,1,.87.87ZM48,30.22H41.4a.87.87,0,0,1-.88-.88h0V18.81H36.8a.87.87,0,0,1-.87-.87h0v-6.5a.87.87,0,0,1,.86-.88H48a.87.87,0,0,1,.87.87h0V29.34a.87.87,0,0,1-.87.88"/><path class="cls-12" d="M67.16,43h4.61V18a.87.87,0,0,1,.87-.87h2.85v-4.8H54.67v4.8H66.29a.87.87,0,0,1,.87.87h0Zm5.48,1.76H66.29a.87.87,0,0,1-.88-.88V18.83H53.79a.87.87,0,0,1-.87-.87h0V11.43a.87.87,0,0,1,.87-.87H76.37a.89.89,0,0,1,.88.87V18a.88.88,0,0,1-.88.88H73.52V43.92a.88.88,0,0,1-.88.88"/><path class="cls-12" d="M91.73,56.12h.93V52.6a.87.87,0,0,1,.86-.88H96.6v-1H87.88v1h3a.89.89,0,0,1,.88.88Zm1.8,1.75H90.85A.87.87,0,0,1,90,57V53.43H87a.86.86,0,0,1-.88-.86h0v-2.7A.87.87,0,0,1,87,49H97.48a.89.89,0,0,1,.88.87V52.6a.88.88,0,0,1-.88.87H94.41V57a.87.87,0,0,1-.86.88h0"/><path class="cls-12" d="M87.46,42.36,92,44l10.62-31.65H89.86a.89.89,0,0,1-.86-.89V5.5H84.21V17.1H94.85a.88.88,0,0,1,.83,1.16Zm5,3.61a.71.71,0,0,1-.29,0L86,43.77a.86.86,0,0,1-.53-1.11L93.6,18.91H83.33a.87.87,0,0,1-.88-.88V4.62a.89.89,0,0,1,.88-.88h6.53a.89.89,0,0,1,.87.88v6h13.06a.89.89,0,0,1,.83,1.15L93.32,45.37a.82.82,0,0,1-.45.51.85.85,0,0,1-.38.09"/><path class="cls-12" d="M113.22,28.43h4.89V12.28h-9.48v4.78h3.72a.87.87,0,0,1,.87.87h0ZM119,30.22h-6.64a.87.87,0,0,1-.88-.88V18.81h-3.72a.87.87,0,0,1-.87-.87h0v-6.5a.87.87,0,0,1,.86-.88H119a.89.89,0,0,1,.88.88V29.34a.89.89,0,0,1-.88.88"/><path class="cls-12" d="M146.3,43h4.81V12.28h-24v4.8h18.33a.89.89,0,0,1,.88.87ZM152,44.8h-6.57a.87.87,0,0,1-.88-.88V18.83H126.21a.87.87,0,0,1-.88-.88V11.43a.87.87,0,0,1,.88-.87H152a.89.89,0,0,1,.88.87V43.92a.89.89,0,0,1-.88.88"/><path class="cls-12" d="M127.8,42.83l5.11.42,1.36-17.39-5.1-.3Zm5.91,2.25h-.07l-6.85-.56a.87.87,0,0,1-.8-1l1.5-19a.89.89,0,0,1,.92-.81l6.86.4a1,1,0,0,1,.61.3.93.93,0,0,1,.21.64l-1.5,19.17a.86.86,0,0,1-.31.6.87.87,0,0,1-.57.21"/><path class="cls-12" d="M178.23,18.43l4.87.47,1.56-16.11-9.44-.91-.46,4.76,3.7.35a.89.89,0,0,1,.79,1V8Zm5.58,2.3-6.62-.64a.85.85,0,0,1-.79-.92.22.22,0,0,1,0-.08l1-10.49-3.7-.36a.86.86,0,0,1-.79-.94h0l.63-6.5a.87.87,0,0,1,.94-.79h0l11.19,1.08a.88.88,0,0,1,.78,1v0l-1.72,17.85a.87.87,0,0,1-.95.79h0"/><path class="cls-12" d="M191.22,16.68a.74.74,0,0,0-.82.64v.09a.7.7,0,0,0,.62.77h0a.68.68,0,0,0,.71-.64.71.71,0,0,0-.53-.85h0m-.32,3.24a2.45,2.45,0,0,1-2.26-2.63v-.05a2.45,2.45,0,1,1,2.25,2.68"/><path class="cls-12" d="M192.51,40.52a.84.84,0,0,0-.88.81.83.83,0,0,0,.72.86.82.82,0,0,0,.83-.79.84.84,0,0,0-.67-.88m-.33,3.41a2.56,2.56,0,0,1-2.3-2.8v-.05A2.53,2.53,0,0,1,195,41a2.91,2.91,0,0,1-.06.6,2.57,2.57,0,0,1-2.75,2.36"/><path class="cls-12" d="M114.46,50.11a.71.71,0,0,0-.57.24.84.84,0,0,0,.1,1.13.84.84,0,0,0,1.18-.06.73.73,0,0,0,.15-.54.93.93,0,0,0-.33-.59.85.85,0,0,0-.53-.18m.11,3.34h0a2.6,2.6,0,0,1-2.6-2.33,2.49,2.49,0,0,1,.58-1.9,2.59,2.59,0,0,1,4.51,1.46,2.45,2.45,0,0,1-.55,1.86,2.48,2.48,0,0,1-1.94.91"/><path class="cls-12" d="M69.31,50.11a.73.73,0,0,0-.58.24.8.8,0,0,0-.17.57.83.83,0,0,0,1.44.51.74.74,0,0,0,.16-.54,1,1,0,0,0-.33-.59.85.85,0,0,0-.53-.18m.1,3.34h0a2.57,2.57,0,0,1-1.7-.63,2.6,2.6,0,0,1-.32-3.6,2.61,2.61,0,0,1,4.52,1.46,2.45,2.45,0,0,1-.56,1.86,2.48,2.48,0,0,1-1.94.91"/><path class="cls-12" d="M198.35,41.08a.85.85,0,0,0-.83.74.81.81,0,0,0,.67.93.85.85,0,0,0,.88-.78.88.88,0,0,0-.72-.89M198,44.49a2.59,2.59,0,0,1,.5-5.15,2.64,2.64,0,0,1,2.29,2.8A2.58,2.58,0,0,1,198,44.49"/><path class="cls-12" d="M186.67,33.91l15.78,1.52v-4.3l-.12-27.54-4.66.05V29.09a.86.86,0,0,1-.29.64.84.84,0,0,1-.67.23L187.08,29Zm16.57,3.36-17.61-1.7a.86.86,0,0,1-.8-.93.17.17,0,0,1,0-.07l.64-6.63a.87.87,0,0,1,1-.79h0l9.54.92L196,2.72a.87.87,0,0,1,.87-.87l6.41-.07a.94.94,0,0,1,.63.26,1,1,0,0,1,.26.62l.07,33.77a.87.87,0,0,1-.86.88h-.14"/><path class="cls-12" d="M218.3,19.29a.74.74,0,0,0-.82.66V20a.7.7,0,0,0,.64.77h0a.68.68,0,0,0,.71-.63.73.73,0,0,0-.56-.86h0m-.3,3.25a2.51,2.51,0,1,1,2.63-2.38c0,.06,0,.11,0,.16A2.44,2.44,0,0,1,218,22.54"/><path class="cls-12" d="M219.46,44.58l8.74.84.07-.72-8.74-.84Zm9.44,2.67-10.48-1a.88.88,0,0,1-.79-1v0l.23-2.46a.87.87,0,0,1,.95-.79h.05l10.48,1a.88.88,0,0,1,.78,1v0l-.27,2.43a.9.9,0,0,1-1,.8h0"/><path class="cls-12" d="M136.39,51.11h8.78v-.68h-8.78ZM146,52.86H135.52a.86.86,0,0,1-.88-.86V49.51a.88.88,0,0,1,.88-.88H146a.89.89,0,0,1,.88.88h0V52a.87.87,0,0,1-.86.88h0"/><path class="cls-12" d="M208.55,32.87l2.5,4.26L228.6,25.84a.86.86,0,0,1,1.2.26.83.83,0,0,1,.09.16l5.17,13.17,4.36-1.89L227.09,6.22,222.76,8l4.66,12a.88.88,0,0,1-.35,1.06Zm2.12,6.36h-.12a.84.84,0,0,1-.55-.41l-3.39-5.77a.86.86,0,0,1,.28-1.18L225.53,20,220.82,7.89a.88.88,0,0,1,.48-1.13l5.94-2.49a.89.89,0,0,1,.68,0,1,1,0,0,1,.48.49L241.35,37.7a.86.86,0,0,1-.46,1.12l-6,2.6a.83.83,0,0,1-.69,0,.86.86,0,0,1-.48-.49l-5.11-13-17.42,11.2a.87.87,0,0,1-.56.14"/></g></g></g></svg>