<svg id="Placeholders" xmlns="http://www.w3.org/2000/svg" viewBox="0 0 747.07 369.04"><defs><style>.cls-1{fill:#231f20;}.cls-2{fill:#0b8f68;}.cls-3{fill:#e6b828;}.cls-4{fill:#8568a7;}.cls-5{fill:#9daad1;}.cls-6{fill:#a61a4a;}.cls-7{fill:#f4eb37;}</style></defs><title>הזמנה</title><path class="cls-1" d="M99.21,335.47H84V259.38h15.2Z"/><path class="cls-1" d="M163.56,314.06h-28.1V301.11h12.9V278.65c0-2.44-.59-4.26-1.75-5.46s-3.11-1.8-5.83-1.8h-1.51a7.87,7.87,0,0,0-5.82,2.06,12,12,0,0,0-3,5.83l-7.78,34.78H107.3L113.94,285l-8.67-25.59h15.51l4.7,13.37h.21a18.61,18.61,0,0,1,.91-3.08,31.19,31.19,0,0,1,1.54-3.4,21.38,21.38,0,0,1,2-3.11,10.58,10.58,0,0,1,2.46-2.27,17.71,17.71,0,0,1,3.63-1.44,18.13,18.13,0,0,1,4.93-.6h5q8.78,0,13.05,4.23t4.29,13.22Z"/><path class="cls-1" d="M222.68,290.77c-.35,2.92-.76,5.51-1.25,7.75a22.88,22.88,0,0,1-2.25,6.14,18.64,18.64,0,0,1-7.7,7.76Q206.59,315,198.76,315h-2.24a55.19,55.19,0,0,1-8.1-.52,19.12,19.12,0,0,1-6.16-1.93,14.63,14.63,0,0,1-6.53-7.06,35.55,35.55,0,0,1-2.67-12.16l-2.55-33.95H186l2,34.26a19.35,19.35,0,0,0,.6,4.49,5.38,5.38,0,0,0,1.6,2.66,6,6,0,0,0,2.84,1.28,23.19,23.19,0,0,0,4.37.34H198q4.8,0,7-2c1.49-1.4,2.42-4,2.77-7.73l1.67-20.32h-12.8V259.38h27.16c1.5,0,2.14,1,1.93,3.13Z"/><path class="cls-1" d="M249.84,314.06H234.65V259.38h15.19Z"/><path class="cls-1" d="M312.21,314.06H294.87l-7.47-10.81-3.08-4.57q-1.57-2.32-3.06-4.49l-2.77-4.05-2.22-3.24a9,9,0,0,0-2,3.16,16.38,16.38,0,0,0-.84,4,43.72,43.72,0,0,0-.13,5.12c.06,1.9.08,4.07.08,6.5v8.36H258.1V306.8q0-3.39.1-6.08c.07-1.8.18-3.39.32-4.78a22.34,22.34,0,0,1,1.67-7,21.67,21.67,0,0,1,1.54-2.8,16.9,16.9,0,0,1,2-2.53c.76-.8,1.63-1.67,2.58-2.61s2-2,3.22-3.08q-1.37-1.62-3.45-4.55c-.7-1-1.41-2-2.14-2.95s-1.45-1.92-2.14-2.9-1.65-2.26-2.54-3.44l-2.69-3.61v-1.09H274c1.11,1.67,2.24,3.29,3.37,4.85s2.25,3.1,3.37,4.6l2.79,4,2.82,4q1.38,1.94,2.64,3.63c.83,1.13,1.58,2.11,2.24,3a15.06,15.06,0,0,0,1.55-1.57,5.2,5.2,0,0,0,.91-1.77,12.16,12.16,0,0,0,.42-2.64c.07-1.06.1-2.45.1-4.15V259.38h15.83v5.48a84.09,84.09,0,0,1-.39,8.7,22.94,22.94,0,0,1-1.73,6.73,21.18,21.18,0,0,1-3.84,5.8,44.21,44.21,0,0,1-6.79,5.83l3.92,5.48,5,7q1.41,2,2.9,4.15l3.11,4.52Z"/><path class="cls-1" d="M354.31,294.47a34.27,34.27,0,0,1-2.93,9.43,19.67,19.67,0,0,1-4.75,6.24,17.42,17.42,0,0,1-6.45,3.48,28,28,0,0,1-7.91,1.07,18.65,18.65,0,0,1-2.8-.21q-1.38-.21-2.37-.42V301.89h2.45a13.26,13.26,0,0,0,6.27-1.51q2.87-1.47,3.5-6l3.18-22H317a3,3,0,0,1-1.3-.21c-.28-.14-.42-.71-.42-1.72V242.72h15.2v16.66h27.68c.94,0,1.41.83,1.41,2.5v.68a3.23,3.23,0,0,1-.1.79Z"/><path class="cls-1" d="M379.64,333.33h-8.78V259.38h8.78Z"/><path class="cls-1" d="M425.29,314.06h-8.77V278.65a23.8,23.8,0,0,0-.68-6.84,5.68,5.68,0,0,0-1.47-2.77l-1-.65a1.66,1.66,0,0,0-.92-.34H388.15v-8.67h24a13.92,13.92,0,0,1,5.43.91,10.06,10.06,0,0,1,3.66,2.64,13.71,13.71,0,0,1,3,5.74,40.37,40.37,0,0,1,1,10.5Z"/><path class="cls-1" d="M479.45,295.36a27.53,27.53,0,0,1-3.39,8.91A22,22,0,0,1,471,310a18,18,0,0,1-6,3.11,22.39,22.39,0,0,1-6.21.91h-3v-8.25H457a18,18,0,0,0,4.17-.52,13,13,0,0,0,4-1.75,12.16,12.16,0,0,0,3.31-3.32,14.64,14.64,0,0,0,2.12-5.22l5.85-26.95H436.05v-8.67h50.4a.94.94,0,0,1,.79.34.66.66,0,0,1,.05.75Zm-32.8,38h-8.77V280.69h8.77Z"/><path class="cls-2" d="M565.69,271.84a13.55,13.55,0,1,1-13.54-13.55A13.54,13.54,0,0,1,565.69,271.84Z"/><path class="cls-3" d="M565.69,29.08a13.55,13.55,0,1,1-13.54-13.54A13.54,13.54,0,0,1,565.69,29.08Z"/><path class="cls-4" d="M672.09,219.47a13.54,13.54,0,1,1-13.54-13.55A13.54,13.54,0,0,1,672.09,219.47Z"/><path class="cls-5" d="M672.09,92.75a13.54,13.54,0,1,1-13.54-13.54A13.54,13.54,0,0,1,672.09,92.75Z"/><path class="cls-6" d="M460.27,92.75a13.54,13.54,0,1,1-13.54-13.54A13.54,13.54,0,0,1,460.27,92.75Z"/><path class="cls-7" d="M460.27,219.47a13.54,13.54,0,1,1-13.54-13.55A13.54,13.54,0,0,1,460.27,219.47Z"/></svg>