    <svg version="1.1" id="Layer_1" xmlns="http://www.w3.org/2000/svg" xmlns:xlink="http://www.w3.org/1999/xlink" x="0px" y="0px"
   	 viewBox="0 0 694.9 197.7" style="enable-background:new 0 0 694.9 197.7;" xml:space="preserve">
   <style type="text/css">
   	.st0{fill:url(#SVGID_1_);}
       .st1{fill:url(#SVGID_2_);}
       .st2{fill:url(#SVGID_3_);}
       .st3{clip-path:url(#SVGID_5_);}
       .st4{opacity:0.1;enable-background:new    ;}
       .st5{opacity:0.2;enable-background:new    ;}
       .st6{fill:url(#SVGID_6_);}
       .st7{fill:url(#SVGID_7_);}
       .st8{fill:url(#SVGID_8_);}
       .st9{fill:url(#SVGID_9_);}
       .st10{enable-background:new    ;}
       .st11{fill:#3B68EE;}
   </style>
   <g>

   		<linearGradient id="SVGID_1_" gradientUnits="userSpaceOnUse" x1="19.2764" y1="99.0097" x2="20.3464" y2="98.3997" gradientTransform="matrix(1 0 0 -1 0 218.0685)">
   		<stop  offset="0" style="stop-color:#3C8CED"/>
   		<stop  offset="1" style="stop-color:#494DF3"/>
   	</linearGradient>
   	<path class="st0" d="M18.8,119.8L21,119C20.3,119.3,19.6,119.6,18.8,119.8L18.8,119.8z"/>

   		<linearGradient id="SVGID_2_" gradientUnits="userSpaceOnUse" x1="59.1231" y1="55.9967" x2="77.923" y2="45.1367" gradientTransform="matrix(1 0 0 -1 0 218.0685)">
   		<stop  offset="0" style="stop-color:#3C8CED"/>
   		<stop  offset="1" style="stop-color:#494DF3"/>
   	</linearGradient>
   	<path class="st1" d="M86.4,166.9l-18,16.4l-1.6-1.7c-3.2-3.6-6.1-7.6-8.7-11.7l-0.1-0.2c-0.6-1-1.2-1.9-1.7-2.9l0.7-0.1
   		c0.8-0.1,1.6-0.3,2.5-0.5c2.6-0.5,5.5-1.3,8.4-2.2c1.3-0.4,2.4-0.8,3.3-1.2l0.1,0c0.9-0.4,1.8-0.8,2.7-1.3c1.2-0.7,2.3-1.4,3.3-2.1
   		l0.1,0c0.7-0.5,1.3-0.9,1.9-1.4c0.4,0.7,0.9,1.3,1.3,2l0.1,0.1c1.2,1.8,2.5,3.6,4,5.2L86.4,166.9z"/>

   		<linearGradient id="SVGID_3_" gradientUnits="userSpaceOnUse" x1="98.6578" y1="25.422" x2="136.7077" y2="190.102" gradientTransform="matrix(1 0 0 -1 0 218.0685)">
   		<stop  offset="0" style="stop-color:#002FDB"/>
   		<stop  offset="9.000000e-02" style="stop-color:#0047D7"/>
   		<stop  offset="0.33" style="stop-color:#0085CE"/>
   		<stop  offset="0.55" style="stop-color:#00B6C6"/>
   		<stop  offset="0.74" style="stop-color:#00D9C1"/>
   		<stop  offset="0.9" style="stop-color:#00EEBD"/>
   		<stop  offset="1" style="stop-color:#00F6BC"/>
   	</linearGradient>
   	<path class="st2" d="M140.1,106.1c-0.5-0.9-1.1-1.8-1.8-2.7c-3.2-4.7-6.9-9.4-10.5-13.9c-13.4-16.8-21.8-28.9-17.2-42.1
   		c0.5-1.4,1.2-2.7,2.1-3.9c1.6-2,3.6-3.8,5.8-5.2l0.2-0.1c3.6-2.2,7.4-3.9,11.4-5.1l2.2-0.7l-7-23.3l-2.2,0.7
   		c-0.8,0.2-1.4,0.4-2,0.6l-1.1,0.4c-7.3,2.4-14.2,6.2-20.1,11.1l-0.1,0.1c-2.6,2.2-4.9,4.7-6.9,7.4c-2.3,3.1-4,6.5-5.3,10.1
   		c-9.1,26.8,7.7,48,21.2,65.1c3.4,4.4,6.7,8.5,9.4,12.4c0.5,0.7,0.9,1.4,1.3,2c8.2,13,11.5,23.7,10.2,32.9c-1.5,9-7.5,16.5-16,19.9
   		c-2.7,1-5.6,1.5-8.5,1.6h-0.1c-3.1,0-6.2-0.4-9.1-1.4l-0.6-0.2c-2.7-0.9-5.2-2.3-7.5-4c-1.1-0.9-2.4-1.9-3-2.5l-1.7-1.6l-16.9,17.5
   		l1.7,1.6c1.8,1.7,4.1,3.5,4.8,4.1L73,187c3.1,2.4,6.4,4.4,10,6c4.7,2.1,9.7,3.5,14.8,4.2c2.3,0.3,4.6,0.5,6.9,0.5
   		c6,0,12-1.1,17.6-3.2c16.8-6.5,28.8-21.4,31.5-39.1C155.9,140.4,151.5,124.2,140.1,106.1L140.1,106.1z"/>
   	<g>
   		<defs>
   			<path id="SVGID_4_" d="M140.1,106.1c-0.5-0.9-1.1-1.8-1.8-2.7c-3.2-4.7-6.9-9.4-10.5-13.9c-13.4-16.8-21.8-28.9-17.2-42.1
   				c0.5-1.4,1.2-2.7,2.1-3.9c1.6-2,3.6-3.8,5.8-5.2l0.2-0.1c3.6-2.2,7.4-3.9,11.4-5.1l2.2-0.7l-7-23.3l-2.2,0.7
   				c-0.8,0.2-1.4,0.4-2,0.6l-1.1,0.4c-7.3,2.4-14.2,6.2-20.1,11.1l-0.1,0.1c-2.6,2.2-4.9,4.7-6.9,7.4c-2.3,3.1-4,6.5-5.3,10.1
   				c-9.1,26.8,7.7,48,21.2,65.1c3.4,4.4,6.7,8.5,9.4,12.4c0.5,0.7,0.9,1.4,1.3,2c8.2,13,11.5,23.7,10.2,32.9
   				c-1.5,9-7.5,16.5-16,19.9c-2.7,1-5.6,1.5-8.5,1.6h-0.1c-3.1,0-6.2-0.4-9.1-1.4l-0.6-0.2c-2.7-0.9-5.2-2.3-7.5-4
   				c-1.1-0.9-2.4-1.9-3-2.5l-1.7-1.6l-16.9,17.5l1.7,1.6c1.8,1.7,4.1,3.5,4.8,4.1L73,187c3.1,2.4,6.4,4.4,10,6
   				c4.7,2.1,9.7,3.5,14.8,4.2c2.3,0.3,4.6,0.5,6.9,0.5c6,0,12-1.1,17.6-3.2c16.8-6.5,28.8-21.4,31.5-39.1
   				C155.9,140.4,151.5,124.2,140.1,106.1L140.1,106.1z"/>
   		</defs>
   		<clipPath id="SVGID_5_">
   			<use xlink:href="#SVGID_4_"  style="overflow:visible;"/>
   		</clipPath>
   		<g class="st3">
   			<path class="st4" d="M121.1,43.1c-1.7-2.5-3.6-4.9-5.6-7.1c-2.3-2.3-4.7-4.4-7.3-6.3c-4.1-3-8.5-5.4-13.3-7.3
   				c-4,3.4-7.6,7.2-10.7,11.5c10.8,2.6,20.3,9.3,26.4,18.6C113.5,48.8,117.1,45.6,121.1,43.1L121.1,43.1z"/>
   			<path class="st5" d="M118.6,167c0.5-0.1,0.6,1.8-5.4,8.3c-11.8,12.8-26.5,20.4-43.5,23.7l-16.4-10.7
   				c16.4-4.4,31.6-12.7,44.2-24.1C104.2,166.9,111.4,167.9,118.6,167z"/>
   		</g>
   	</g>

   		<linearGradient id="SVGID_6_" gradientUnits="userSpaceOnUse" x1="117.8277" y1="192.0833" x2="195.4577" y2="192.0833" gradientTransform="matrix(1 0 0 -1 0 218.0685)">
   		<stop  offset="0" style="stop-color:#02F2AA"/>
   		<stop  offset="1" style="stop-color:#00F6D2"/>
   	</linearGradient>
   	<path class="st6" d="M194.8,36.8c-4.2-14.1-16.7-25.3-32.6-29.3c-5-1.2-15.7-2.9-31.5,0.3c-3.1,0.6-6.3,1.4-9.5,2.3l-0.4-0.1
   		l-0.4,0.3l-0.4,0.1l-2.2,0.7l7,23.3l2.2-0.7c0.9-0.3,1.8-0.5,2.9-0.8c2.2-0.6,4.3-1.1,6.4-1.4h0.2h0.1c3.1-0.6,6.2-0.9,9.3-1.1
   		c3.5-0.2,7,0,10.5,0.8c7.5,1.8,13.4,6.8,15.1,12.6l0.7,2.2l23.3-6.9L194.8,36.8z"/>

   		<linearGradient id="SVGID_7_" gradientUnits="userSpaceOnUse" x1="29.5244" y1="85.8152" x2="78.1844" y2="60.9052" gradientTransform="matrix(1 0 0 -1 0 218.0685)">
   		<stop  offset="0" style="stop-color:#4975F3"/>
   		<stop  offset="9.000000e-02" style="stop-color:#406CF0"/>
   		<stop  offset="0.48" style="stop-color:#1D4BE5"/>
   		<stop  offset="0.79" style="stop-color:#0836DE"/>
   		<stop  offset="1" style="stop-color:#002FDB"/>
   	</linearGradient>
   	<path class="st7" d="M79.4,157.9c-0.6,0.5-1.2,1-1.9,1.4l-0.1,0c-1,0.7-2.1,1.4-3.3,2.1c-0.9,0.5-1.8,0.9-2.7,1.3l-0.1,0
   		c-0.9,0.4-2,0.8-3.3,1.2c-3,0.9-5.8,1.6-8.4,2.2c-0.9,0.2-1.8,0.4-2.5,0.5l-0.7,0.1c-0.8-1.3-1.5-2.6-2.3-3.9l-0.8-1.3
   		c-0.3-0.5-0.5-0.9-0.8-1.4c-3.2-5.5-7-11.6-11.9-15.3c-3.7-2.8-8.2-4-11.1-3h0l-2.2,0.8l-8.4-22.8c0.7-0.3,1.4-0.6,2.1-0.9
   		s1.5-0.5,2.2-0.7c10.3-2.9,22.4-0.2,32.1,7.2c8.4,6.4,13.8,14.9,18.1,22.3c0.4,0.8,0.9,1.5,1.3,2.3l0.3,0.5c0.4,0.7,0.8,1.4,1.2,2
   		C77.2,154.3,78.3,156.1,79.4,157.9L79.4,157.9z"/>

   		<linearGradient id="SVGID_8_" gradientUnits="userSpaceOnUse" x1="21.5599" y1="98.9692" x2="22.9299" y2="100.0692" gradientTransform="matrix(1 0 0 -1 0 218.0685)">
   		<stop  offset="0" style="stop-color:#4975F3"/>
   		<stop  offset="1" style="stop-color:#00F6D2"/>
   	</linearGradient>
   	<path class="st8" d="M23.2,118.3c-0.8,0.2-1.5,0.4-2.2,0.7L23.2,118.3L23.2,118.3z"/>

   		<linearGradient id="SVGID_9_" gradientUnits="userSpaceOnUse" x1="26.4502" y1="82.9965" x2="171.6002" y2="200.1665" gradientTransform="matrix(1 0 0 -1 0 218.0685)">
   		<stop  offset="0" style="stop-color:#4975F3"/>
   		<stop  offset="1" style="stop-color:#00F6D2"/>
   	</linearGradient>
   	<path class="st9" d="M174.2,79c-11,3.6-23.8,0.8-34.1-7.4c-7.9-6.3-13-14.5-17.7-22.3l-1.1-1.8c-1.1-2-2.2-3.8-3.4-5.6l-2.6-3.9
   		c-1-1.4-2-2.7-3.1-4l-0.1,0l-0.1-0.1l-0.3-0.4c-0.4-0.4-0.8-0.8-1.2-1.2c-2.9-2.7-6.3-4.8-10-6.1c-0.6-0.2-1.2-0.4-1.7-0.5
   		l-0.2-0.1c-1-0.3-2.1-0.5-3.2-0.7c-3.8-0.6-7.7-0.4-11.4,0.6c-8.9,2.6-16,10.6-17.4,19.4C65.6,51.9,67,60,70.8,68.1
   		c2.6,5.4,6.4,10.6,10.4,16.1l0.1,0.1c1.4,1.9,2.9,3.9,4.3,5.9c5.9,8.3,11.4,17,16.3,25.9c4.7,8.7,9,18.3,8.5,29.5
   		c-0.4,8.9-3.5,17.5-9.1,24.6c-0.2,0.2-0.3,0.4-0.4,0.5c-1.4,1.6-3,3.2-4.6,4.6l-0.1,0.1l-0.3,0.3c-1.5,1.3-3.1,2.5-4.7,3.6
   		c-1.6,1.1-3.3,2.2-5.1,3.2c-3.5,1.9-7.2,3.5-11,4.6h-0.1l-0.2,0.1c-8.6,2.8-17.5,4.3-26.5,4.4c-2.7,0-5.5-0.2-8.2-0.5
   		c-1.4-0.2-2.8-0.4-4.2-0.7c-16.2-3.4-29.3-14.1-34.1-28.1c-2.7-8.2-2.4-17,0.8-25c2.9-7.7,8.7-14,16.2-17.5l8.3,22.8l2.2-0.8
   		c-3.8,1.4-6.1,7.8-4.4,12.6c2,5.8,8.3,10.6,16,12.2c5.1,1,10.3,1,15.4,0.1l0.7-0.1c0.8-0.1,1.6-0.3,2.5-0.5
   		c2.6-0.5,5.5-1.3,8.4-2.2c1.3-0.4,2.4-0.8,3.3-1.2l0.1,0c0.9-0.4,1.8-0.8,2.7-1.3c1.2-0.7,2.3-1.4,3.3-2.1l0.1,0
   		c0.7-0.5,1.3-0.9,1.9-1.4c1.2-0.9,2.2-1.9,3.2-3.1c2.2-2.9,3.4-6.4,3.6-10.1c0.2-5-2.1-10.4-5.6-16.9c-4.4-8.1-9.4-16-14.7-23.5
   		c-1.2-1.6-2.4-3.3-3.6-5l-0.5-0.7c-4.6-6.2-9.3-12.6-12.9-20.2C43,66,40.9,53,42.7,41C45.4,22.9,59.4,7.1,77.3,1.9
   		c15.1-4.4,32.5-1.1,45.4,8.6l0.1,0.1l0.4,0.3c1,0.8,1.9,1.5,2.8,2.4l0.1,0.1c0.4,0.4,0.8,0.8,1.2,1.1c4.1,4,7.7,8.6,10.7,13.5
   		c0.5,0.7,1,1.5,1.5,2.4c1,1.6,2,3.3,3,5.1l0.8,1.3c3.6,6.2,7.3,12,12,15.7c3.7,3,8.2,4.3,11.2,3.3c3.8-1.2,6.3-7.5,4.9-12.1
   		l-0.7-2.2l23.3-6.9l0.7,2.2C200,54.3,190.6,73.6,174.2,79L174.2,79z"/>
   	<g class="st10">
   		<path class="st11" d="M217.1,145.9c0.2,2.7,1.3,5.1,3.4,7.3c2.1,2.1,5.1,3.2,9.2,3.2c3.1,0,5.4-0.7,6.9-2c1.5-1.4,2.2-3,2.2-4.8
   			c0-1.6-0.6-3-1.7-4.1c-1.1-1.2-3-2-5.7-2.6l-9.1-2.1c-6.7-1.5-11.6-4.1-14.7-7.8c-3.1-3.7-4.6-8-4.6-12.8c0-3.1,0.7-6,2-8.8
   			c1.3-2.8,3.1-5.1,5.4-7.1c2.3-2,5-3.6,8.1-4.8c3.1-1.2,6.6-1.8,10.3-1.8c4.9,0,9,0.7,12.3,2c3.4,1.4,6.1,3.1,8.2,5.1
   			c2.1,2.1,3.7,4.2,4.7,6.5c1,2.3,1.6,4.4,1.8,6.2l-15.5,3.5c-0.2-1-0.5-2.1-0.9-3.2c-0.4-1.1-1.1-2.1-2-3c-0.9-0.9-2.1-1.7-3.4-2.2
   			c-1.4-0.6-3-0.8-5-0.8c-2.4,0-4.5,0.7-6.2,2c-1.7,1.3-2.6,2.9-2.6,4.9c0,1.7,0.6,3,1.8,4.1c1.2,1,2.7,1.7,4.5,2.1l9.8,2.1
   			c6.8,1.4,11.9,4,15.3,7.8c3.4,3.8,5.1,8.3,5.1,13.3c0,2.8-0.5,5.6-1.6,8.3c-1.1,2.7-2.7,5.1-5,7.3c-2.2,2.1-5,3.9-8.4,5.2
   			c-3.4,1.3-7.3,2-11.8,2c-5.2,0-9.6-0.7-13.2-2.2c-3.5-1.5-6.4-3.3-8.7-5.5c-2.2-2.1-3.9-4.5-5-6.9c-1.1-2.5-1.7-4.7-1.9-6.6
   			L217.1,145.9z"/>
   		<path class="st11" d="M290.1,168.6h-18.6V67.2h18.6v38.2c2.2-2.7,5.1-4.6,8.5-5.8c3.5-1.2,6.8-1.8,10.1-1.8
   			c4.4,0,8.2,0.7,11.4,2.2c3.2,1.4,5.9,3.4,8,5.8c2.1,2.4,3.7,5.3,4.7,8.7c1,3.4,1.5,6.9,1.5,10.6v43.4h-18.6v-40.2
   			c0-3.9-1-7.2-3-9.8c-2-2.6-5.3-3.9-9.7-3.9c-3.9,0-7,1.3-9.2,3.9c-2.2,2.6-3.5,5.8-3.6,9.6V168.6z"/>
   		<path class="st11" d="M384.2,97.6c5.1,0,9.9,0.9,14.3,2.7c4.4,1.8,8.3,4.3,11.5,7.6c3.2,3.2,5.7,7.1,7.6,11.6
   			c1.8,4.5,2.7,9.4,2.7,14.7c0,5.3-0.9,10.2-2.7,14.6c-1.8,4.4-4.3,8.3-7.6,11.5c-3.2,3.3-7,5.8-11.5,7.6c-4.4,1.8-9.2,2.7-14.3,2.7
   			c-5.1,0-9.9-0.9-14.4-2.7c-4.4-1.8-8.3-4.4-11.5-7.6c-3.2-3.3-5.7-7.1-7.6-11.5c-1.8-4.4-2.7-9.3-2.7-14.6
   			c0-5.3,0.9-10.2,2.7-14.7c1.8-4.5,4.3-8.3,7.6-11.6c3.2-3.2,7-5.7,11.5-7.6C374.3,98.5,379.1,97.6,384.2,97.6z M384.2,153.7
   			c2.2,0,4.4-0.4,6.6-1.3c2.1-0.8,4-2.1,5.6-3.7c1.6-1.6,2.9-3.7,3.9-6.1c1-2.4,1.5-5.3,1.5-8.5c0-3.3-0.5-6.1-1.5-8.5
   			c-1-2.4-2.3-4.5-3.9-6.1c-1.6-1.6-3.5-2.9-5.6-3.7c-2.1-0.8-4.3-1.3-6.6-1.3s-4.4,0.4-6.6,1.3c-2.1,0.8-4,2.1-5.6,3.7
   			c-1.6,1.6-2.9,3.7-3.9,6.1c-1,2.4-1.5,5.3-1.5,8.5c0,3.3,0.5,6.1,1.5,8.5c1,2.4,2.3,4.5,3.9,6.1c1.6,1.6,3.5,2.9,5.6,3.7
   			C379.8,153.3,382,153.7,384.2,153.7z"/>
   		<path class="st11" d="M435,195.2V99.7h18.1v8.4c1.6-2.7,4.2-5,7.8-7c3.6-2,8.1-2.9,13.3-2.9c5,0,9.5,0.9,13.4,2.7
   			c3.9,1.8,7.3,4.3,10,7.6c2.8,3.2,4.8,7,6.2,11.3c1.4,4.3,2.1,9.1,2.1,14.2c0,5.2-0.8,10.1-2.3,14.5c-1.5,4.4-3.7,8.3-6.6,11.5
   			c-2.8,3.2-6.3,5.7-10.3,7.6c-4,1.8-8.4,2.7-13.3,2.7c-4.8,0-8.8-0.8-12.2-2.4c-3.4-1.6-5.9-3.6-7.6-6v33.3H435z M487.7,134.1
   			c0-6.2-1.7-10.9-5-14.3c-3.3-3.4-7.3-5-12.1-5c-2.4,0-4.7,0.4-6.7,1.3c-2.1,0.9-3.9,2.1-5.5,3.8c-1.6,1.6-2.8,3.6-3.7,6
   			c-0.9,2.4-1.3,5.1-1.3,8.2c0,3.1,0.4,5.8,1.3,8.2c0.9,2.4,2.1,4.4,3.7,6.1c1.6,1.7,3.4,3,5.5,3.9c2.1,0.9,4.3,1.3,6.7,1.3
   			c4.8,0,8.8-1.7,12.1-5.1C486,145.1,487.7,140.3,487.7,134.1z"/>
   		<path class="st11" d="M582.5,148.8c-0.8,3-2.2,5.8-4,8.5c-1.8,2.7-4,5-6.7,6.9c-2.6,2-5.7,3.5-9.2,4.7s-7.3,1.8-11.5,1.8
   			c-4.8,0-9.3-0.8-13.6-2.4c-4.3-1.6-8.1-4-11.3-7.2c-3.3-3.2-5.9-7-7.8-11.6c-1.9-4.6-2.9-9.8-2.9-15.5c0-5.5,0.9-10.5,2.8-15
   			c1.9-4.5,4.4-8.3,7.5-11.4c3.1-3.1,6.7-5.6,10.9-7.3c4.1-1.7,8.4-2.6,12.7-2.6c10.7,0,19.1,3.2,25.1,9.5c6,6.3,9,15.1,9,26.2
   			c0,1.3,0,2.5-0.1,3.7c-0.1,1.2-0.1,1.8-0.1,2h-49.3c0.1,2.2,0.6,4.3,1.6,6.2c1,1.9,2.2,3.6,3.8,5c1.5,1.4,3.3,2.5,5.4,3.3
   			c2.1,0.8,4.2,1.2,6.6,1.2c4.4,0,7.8-1,10.3-2.9c2.5-2,4.3-4.5,5.4-7.6L582.5,148.8z M565.1,126.3c-0.1-1.7-0.4-3.3-1-5
   			c-0.6-1.6-1.5-3.1-2.8-4.3c-1.3-1.3-2.8-2.3-4.8-3.1c-1.9-0.8-4.2-1.2-6.8-1.2c-2.4,0-4.6,0.4-6.4,1.3c-1.9,0.8-3.5,1.9-4.8,3.2
   			c-1.3,1.3-2.3,2.8-3,4.3c-0.7,1.6-1.1,3.2-1.2,4.8H565.1z"/>
   		<path class="st11" d="M640.1,118.2c-1.9-0.4-3.7-0.6-5.6-0.6c-2.4,0-4.7,0.3-6.9,1c-2.1,0.7-4,1.7-5.6,3.2c-1.6,1.5-2.9,3.5-3.8,6
   			c-1,2.5-1.5,5.6-1.5,9.3v31.5h-18.6V99.7h18.1v10.2c1-2.2,2.4-4.1,4-5.5c1.6-1.4,3.4-2.5,5.2-3.3c1.8-0.7,3.6-1.3,5.5-1.5
   			c1.8-0.3,3.5-0.4,5-0.4c0.7,0,1.5,0,2.2,0.1c0.7,0,1.4,0.1,2.2,0.2V118.2z"/>
   		<path class="st11" d="M694.9,118.2c-1.9-0.4-3.7-0.6-5.6-0.6c-2.4,0-4.7,0.3-6.9,1c-2.1,0.7-4,1.7-5.6,3.2c-1.6,1.5-2.9,3.5-3.8,6
   			c-1,2.5-1.5,5.6-1.5,9.3v31.5h-18.6V99.7h18.1v10.2c1-2.2,2.4-4.1,4-5.5c1.6-1.4,3.4-2.5,5.2-3.3c1.8-0.7,3.6-1.3,5.5-1.5
   			c1.8-0.3,3.5-0.4,5-0.4c0.7,0,1.5,0,2.2,0.1c0.7,0,1.4,0.1,2.2,0.2V118.2z"/>
   	</g>
   </g>
   </svg>